<?xml version="1.0" encoding="UTF-8" standalone="no"?>
<!DOCTYPE svg PUBLIC "-//W3C//DTD SVG 1.1//EN"
"http://www.w3.org/Graphics/SVG/1.1/DTD/svg11.dtd">
<svg viewBox="0 0 909 1286" version="1.1" xmlns="http://www.w3.org/2000/svg" xmlns:xlink="http://www.w3.org/1999/xlink">
<defs>
<style type="text/css"><![CDATA[
.g0_6{
fill: #FFF;
}
]]></style>
</defs>
<path fill-rule="evenodd" d="M86.6,124H819.4V105.4H86.6V124Z" class="g0_6"/>
<path fill-rule="evenodd" d="M86.6,142.8H821.1V124.1H86.6v18.7Z" class="g0_6"/>
<path fill-rule="evenodd" d="M86.6,161.4H384.9V142.8H86.6v18.6Z" class="g0_6"/>
<path fill-rule="evenodd" d="M86.6,198.8H775.4V180.3H86.6v18.5Z" class="g0_6"/>
<path fill-rule="evenodd" d="M86.6,217.6H782.3V198.9H86.6v18.7Z" class="g0_6"/>
<path fill-rule="evenodd" d="M86.6,236.3H407.8V217.7H86.6v18.6Z" class="g0_6"/>
<path fill-rule="evenodd" d="M86.6,273.7H315.7V255.1H86.6v18.6Z" class="g0_6"/>
<path fill-rule="evenodd" d="M86.6,311.1H768.7V292.6H86.6v18.5Z" class="g0_6"/>
<path fill-rule="evenodd" d="M86.6,329.9H818.2V311.2H86.6v18.7Z" class="g0_6"/>
<path fill-rule="evenodd" d="M86.6,348.6H721V330H86.6v18.6Z" class="g0_6"/>
<path fill-rule="evenodd" d="M86.6,367.4H194V348.6H86.6v18.8Z" class="g0_6"/>
<path fill-rule="evenodd" d="M86.6,404.8H763V386.1H86.6v18.7Z" class="g0_6"/>
<path fill-rule="evenodd" d="M86.6,423.4H732.8V404.9H86.6v18.5Z" class="g0_6"/>
<path fill-rule="evenodd" d="M86.6,442.2H277.5V423.5H86.6v18.7Z" class="g0_6"/>
<path fill-rule="evenodd" d="M86.6,479.6H748.8V460.9H86.6v18.7Z" class="g0_6"/>
<path fill-rule="evenodd" d="M86.6,498.3H495.4V479.7H86.6v18.6Z" class="g0_6"/>
<path fill-rule="evenodd" d="M86.6,535.7H757.2V517.2H86.6v18.5Z" class="g0_6"/>
<path fill-rule="evenodd" d="M86.6,554.5H477V535.8H86.6v18.7Z" class="g0_6"/>
<path fill-rule="evenodd" d="M86.6,591.9H443.1V573.2H86.6v18.7Z" class="g0_6"/>
<path fill-rule="evenodd" d="M86.6,629.4H789.9V610.7H86.6v18.7Z" class="g0_6"/>
<path fill-rule="evenodd" d="M86.6,648H812.9V629.4H86.6V648Z" class="g0_6"/>
<path fill-rule="evenodd" d="M86.6,666.8H403V648.1H86.6v18.7Z" class="g0_6"/>
<path fill-rule="evenodd" d="M86.6,704.2H759.8V685.5H86.6v18.7Z" class="g0_6"/>
<path fill-rule="evenodd" d="M86.6,722.9H758.9V704.3H86.6v18.6Z" class="g0_6"/>
<path fill-rule="evenodd" d="M86.6,741.7H413.5V722.9H86.6v18.8Z" class="g0_6"/>
<path fill-rule="evenodd" d="M86.6,779.1H798.3V760.4H86.6v18.7Z" class="g0_6"/>
<path fill-rule="evenodd" d="M86.6,797.7H738.9V779.2H86.6v18.5Z" class="g0_6"/>
<path fill-rule="evenodd" d="M86.6,816.5H811.8V797.8H86.6v18.7Z" class="g0_6"/>
<path fill-rule="evenodd" d="M86.6,835.2H774.5V816.6H86.6v18.6Z" class="g0_6"/>
<path fill-rule="evenodd" d="M86.6,854h238V835.2H86.6V854Z" class="g0_6"/>
<path fill-rule="evenodd" d="M86.6,891.4H406.8V872.7H86.6v18.7Z" class="g0_6"/>
<path fill-rule="evenodd" d="M86.6,928.8H803.4V910.1H86.6v18.7Z" class="g0_6"/>
<path fill-rule="evenodd" d="M86.6,947.5H797.4V928.9H86.6v18.6Z" class="g0_6"/>
<path fill-rule="evenodd" d="M86.6,966.2h718V947.5H86.6v18.7Z" class="g0_6"/>
<path fill-rule="evenodd" d="M86.6,984.9h97.6V966.3H86.6v18.6Z" class="g0_6"/>
<path fill-rule="evenodd" d="M86.6,1022.3H816.5v-18.5H86.6v18.5Z" class="g0_6"/>
<path fill-rule="evenodd" d="M86.6,1041.1H775.1v-18.7H86.6v18.7Z" class="g0_6"/>
<path fill-rule="evenodd" d="M86.6,1059.7H797.7v-18.5H86.6v18.5Z" class="g0_6"/>
<path fill-rule="evenodd" d="M86.6,1097.2H353.9v-18.6H86.6v18.6Z" class="g0_6"/>
<path fill-rule="evenodd" d="M86.6,1134.6H730.5V1116H86.6v18.6Z" class="g0_6"/>
<path fill-rule="evenodd" d="M86.6,1153.4H674v-18.7H86.6v18.7Z" class="g0_6"/>
<path fill-rule="evenodd" d="M86.6,1190.8H808.1v-18.7H86.6v18.7Z" class="g0_6"/>
</svg>