<?xml version="1.0" encoding="UTF-8" standalone="no"?>
<!DOCTYPE svg PUBLIC "-//W3C//DTD SVG 1.1//EN"
"http://www.w3.org/Graphics/SVG/1.1/DTD/svg11.dtd">
<svg viewBox="0 0 909 1286" version="1.1" xmlns="http://www.w3.org/2000/svg" xmlns:xlink="http://www.w3.org/1999/xlink">
<defs>
<style type="text/css"><![CDATA[
.g0_4{
fill: #FFF;
}
]]></style>
</defs>
<path fill-rule="evenodd" d="M86.6,105.3H822.8V86.6H86.6v18.7Z" class="g0_4"/>
<path fill-rule="evenodd" d="M86.6,124H803.2V105.4H86.6V124Z" class="g0_4"/>
<path fill-rule="evenodd" d="M86.6,142.8H818.4V124.1H86.6v18.7Z" class="g0_4"/>
<path fill-rule="evenodd" d="M86.6,161.4H209.2V142.8H86.6v18.6Z" class="g0_4"/>
<path fill-rule="evenodd" d="M86.6,198.8H632.1V180.3H86.6v18.5Z" class="g0_4"/>
<path fill-rule="evenodd" d="M86.6,236.3H649.7V217.7H86.6v18.6Z" class="g0_4"/>
<path fill-rule="evenodd" d="M86.6,255.1H665V236.3H86.6v18.8Z" class="g0_4"/>
<path fill-rule="evenodd" d="M86.6,273.7H786.3V255.1H86.6v18.6Z" class="g0_4"/>
<path fill-rule="evenodd" d="M86.6,292.5H225.4V273.8H86.6v18.7Z" class="g0_4"/>
<path fill-rule="evenodd" d="M86.6,311.1H776.3V292.6H86.6v18.5Z" class="g0_4"/>
<path fill-rule="evenodd" d="M86.6,329.9H369.2V311.2H86.6v18.7Z" class="g0_4"/>
<path fill-rule="evenodd" d="M86.6,348.6H641.7V330H86.6v18.6Z" class="g0_4"/>
<path fill-rule="evenodd" d="M86.6,386H813.8V367.4H86.6V386Z" class="g0_4"/>
<path fill-rule="evenodd" d="M86.6,404.8H538.8V386.1H86.6v18.7Z" class="g0_4"/>
<path fill-rule="evenodd" d="M86.6,442.2H805.1V423.5H86.6v18.7Z" class="g0_4"/>
<path fill-rule="evenodd" d="M86.6,460.9H752.8V442.3H86.6v18.6Z" class="g0_4"/>
<path fill-rule="evenodd" d="M86.6,479.6H794.4V460.9H86.6v18.7Z" class="g0_4"/>
<path fill-rule="evenodd" d="M86.6,535.7H447.1V517.2H86.6v18.5Z" class="g0_4"/>
<path fill-rule="evenodd" d="M86.6,573.1H762V554.6H86.6v18.5Z" class="g0_4"/>
<path fill-rule="evenodd" d="M86.6,591.9H797.1V573.2H86.6v18.7Z" class="g0_4"/>
<path fill-rule="evenodd" d="M86.6,610.6H282V592H86.6v18.6Z" class="g0_4"/>
<path fill-rule="evenodd" d="M86.6,648H786.1V629.4H86.6V648Z" class="g0_4"/>
<path fill-rule="evenodd" d="M86.6,666.8h580V648.1H86.6v18.7Z" class="g0_4"/>
<path fill-rule="evenodd" d="M86.6,704.2h676V685.5H86.6v18.7Z" class="g0_4"/>
<path fill-rule="evenodd" d="M86.6,722.9h723V704.3H86.6v18.6Z" class="g0_4"/>
<path fill-rule="evenodd" d="M86.6,741.7h68.2V722.9H86.6v18.8Z" class="g0_4"/>
<path fill-rule="evenodd" d="M86.6,779.1H820V760.4H86.6v18.7Z" class="g0_4"/>
<path fill-rule="evenodd" d="M86.6,797.7H449.4V779.2H86.6v18.5Z" class="g0_4"/>
<path fill-rule="evenodd" d="M86.6,835.2h700V816.6H86.6v18.6Z" class="g0_4"/>
<path fill-rule="evenodd" d="M86.6,854H782.8V835.2H86.6V854Z" class="g0_4"/>
<path fill-rule="evenodd" d="M86.6,872.6h83.1V854H86.6v18.6Z" class="g0_4"/>
<path fill-rule="evenodd" d="M86.6,910H329.9V891.5H86.6V910Z" class="g0_4"/>
<path fill-rule="evenodd" d="M86.6,928.8H673.1V910.1H86.6v18.7Z" class="g0_4"/>
<path fill-rule="evenodd" d="M86.6,947.5H201.4V928.9H86.6v18.6Z" class="g0_4"/>
<path fill-rule="evenodd" d="M86.6,984.9H779.4V966.3H86.6v18.6Z" class="g0_4"/>
<path fill-rule="evenodd" d="M86.6,1003.7H517.7V985H86.6v18.7Z" class="g0_4"/>
<path fill-rule="evenodd" d="M86.6,1041.1H714.3v-18.7H86.6v18.7Z" class="g0_4"/>
<path fill-rule="evenodd" d="M86.6,1059.7H665.9v-18.5H86.6v18.5Z" class="g0_4"/>
<path fill-rule="evenodd" d="M86.6,1097.2H741.5v-18.6H86.6v18.6Z" class="g0_4"/>
<path fill-rule="evenodd" d="M86.6,1116H306.5v-18.7H86.6V1116Z" class="g0_4"/>
<path fill-rule="evenodd" d="M86.6,1134.6H786V1116H86.6v18.6Z" class="g0_4"/>
<path fill-rule="evenodd" d="M86.6,1153.4H744.4v-18.7H86.6v18.7Z" class="g0_4"/>
<path fill-rule="evenodd" d="M86.6,1172H267.1v-18.5H86.6V1172Z" class="g0_4"/>
<path fill-rule="evenodd" d="M86.6,1190.8h669v-18.7H86.6v18.7Z" class="g0_4"/>
</svg>