<?xml version="1.0" encoding="UTF-8" standalone="no"?>
<!DOCTYPE svg PUBLIC "-//W3C//DTD SVG 1.1//EN"
"http://www.w3.org/Graphics/SVG/1.1/DTD/svg11.dtd">
<svg viewBox="0 0 909 1286" version="1.1" xmlns="http://www.w3.org/2000/svg" xmlns:xlink="http://www.w3.org/1999/xlink">
<defs>
<style type="text/css"><![CDATA[
.g0_1{
fill: #FFF;
}
.g1_1{
fill: #FF0;
}
]]></style>
</defs>
<path fill-rule="evenodd" d="M86.6,105.3H366.1V86.6H86.6v18.7Z" class="g0_1"/>
<path fill-rule="evenodd" d="M86.6,142.8H720.9V124.1H86.6v18.7Z" class="g0_1"/>
<path fill-rule="evenodd" d="M86.6,161.4H692.5V142.8H86.6v18.6Z" class="g0_1"/>
<path fill-rule="evenodd" d="M86.6,180.2H660.1V161.5H86.6v18.7Z" class="g0_1"/>
<path fill-rule="evenodd" d="M86.6,217.6H810.3V198.9H86.6v18.7Z" class="g0_1"/>
<path fill-rule="evenodd" d="M86.6,236.3H796.4V217.7H86.6v18.6Z" class="g0_1"/>
<path fill-rule="evenodd" d="M86.6,255.1H608.4V236.3H86.6v18.8Z" class="g0_1"/>
<path fill-rule="evenodd" d="M86.6,292.5H794.5V273.8H86.6v18.7Z" class="g0_1"/>
<path fill-rule="evenodd" d="M86.6,311.1H773.4V292.6H86.6v18.5Z" class="g0_1"/>
<path fill-rule="evenodd" d="M86.6,329.9H783.4V311.2H86.6v18.7Z" class="g0_1"/>
<path fill-rule="evenodd" d="M86.6,348.6H502.3V330H86.6v18.6Z" class="g0_1"/>
<path fill-rule="evenodd" d="M86.6,386h689V367.4H86.6V386Z" class="g0_1"/>
<path fill-rule="evenodd" d="M86.6,404.8H314.5V386.1H86.6v18.7Z" class="g0_1"/>
<path fill-rule="evenodd" d="M86.6,460.9H794.4V442.3H86.6v18.6Z" class="g0_1"/>
<path fill-rule="evenodd" d="M86.6,479.6H230.9V460.9H86.6v18.7Z" class="g0_1"/>
<path fill-rule="evenodd" d="M86.6,498.3H792.2V479.7H86.6v18.6Z" class="g0_1"/>
<path fill-rule="evenodd" d="M86.6,517.1H192.1V498.4H86.6v18.7Z" class="g0_1"/>
<path fill-rule="evenodd" d="M86.6,535.7H783.1V517.2H86.6v18.5Z" class="g0_1"/>
<path fill-rule="evenodd" d="M86.6,554.5H486.1V535.8H86.6v18.7Z" class="g0_1"/>
<path fill-rule="evenodd" d="M86.6,610.6H329.8V592H86.6v18.6Z" class="g0_1"/>
<path fill-rule="evenodd" d="M86.6,648H772.8V629.4H86.6V648Z" class="g0_1"/>
<path fill-rule="evenodd" d="M86.6,666.8H762.7V648.1H86.6v18.7Z" class="g0_1"/>
<path fill-rule="evenodd" d="M86.6,685.4h606V666.9H86.6v18.5Z" class="g0_1"/>
<path fill-rule="evenodd" d="M86.6,722.9H759.8V704.3H86.6v18.6Z" class="g0_1"/>
<path fill-rule="evenodd" d="M86.6,741.7H808.7V722.9H86.6v18.8Z" class="g0_1"/>
<path fill-rule="evenodd" d="M86.6,760.3H728.5V741.7H86.6v18.6Z" class="g0_1"/>
<path fill-rule="evenodd" d="M86.6,797.7H636.1V779.2H86.6v18.5Z" class="g0_1"/>
<path fill-rule="evenodd" d="M86.6,835.2H796.4V816.6H86.6v18.6Z" class="g0_1"/>
<path fill-rule="evenodd" d="M86.6,854H375.5V835.2H86.6V854Z" class="g0_1"/>
<path fill-rule="evenodd" d="M86.6,872.6H747.2V854H86.6v18.6Z" class="g0_1"/>
<path fill-rule="evenodd" d="M86.6,891.4H196.5V872.7H86.6v18.7Z" class="g0_1"/>
<path fill-rule="evenodd" d="M86.6,910H773.1V891.5H86.6V910Z" class="g0_1"/>
<path fill-rule="evenodd" d="M86.6,928.8h79.7V910.1H86.6v18.7Z" class="g0_1"/>
<path fill-rule="evenodd" d="M86.6,947.5H562.1V928.9H86.6v18.6Z" class="g0_1"/>
<path fill-rule="evenodd" d="M86.6,966.2H600.5V947.5H86.6v18.7Z" class="g0_1"/>
<path fill-rule="evenodd" d="M86.6,1003.7H284.9V985H86.6v18.7Z" class="g0_1"/>
<path fill-rule="evenodd" d="M86.6,1022.3H368.3v-18.5H86.6v18.5Z" class="g0_1"/>
<path fill-rule="evenodd" d="M86.6,1041.1H302.7v-18.7H86.6v18.7Z" class="g0_1"/>
<path fill-rule="evenodd" d="M86.6,1059.7h173v-18.5H86.6v18.5Z" class="g0_1"/>
<path fill-rule="evenodd" d="M86.6,1078.5H499.8v-18.7H86.6v18.7Z" class="g1_1"/>
<path fill-rule="evenodd" d="M86.6,1097.2H351.9v-18.6H86.6v18.6Z" class="g0_1"/>
<path fill-rule="evenodd" d="M86.6,1116H508.1v-18.7H86.6V1116Z" class="g0_1"/>
<path fill-rule="evenodd" d="M86.6,1134.6H262.4V1116H86.6v18.6Z" class="g0_1"/>
<path fill-rule="evenodd" d="M86.6,1153.4H486.1v-18.7H86.6v18.7Z" class="g0_1"/>
<path fill-rule="evenodd" d="M86.6,1190.8H750.1v-18.7H86.6v18.7Z" class="g0_1"/>
</svg>