<?xml version="1.0" encoding="UTF-8" standalone="no"?>
<!DOCTYPE svg PUBLIC "-//W3C//DTD SVG 1.1//EN"
"http://www.w3.org/Graphics/SVG/1.1/DTD/svg11.dtd">
<svg viewBox="0 0 909 1286" version="1.1" xmlns="http://www.w3.org/2000/svg" xmlns:xlink="http://www.w3.org/1999/xlink">
<defs>
<style type="text/css"><![CDATA[
.g0_2{
fill: #FFF;
}
]]></style>
</defs>
<path fill-rule="evenodd" d="M86.6,105.3H625.7V86.6H86.6v18.7Z" class="g0_2"/>
<path fill-rule="evenodd" d="M86.6,142.8H816.5V124.1H86.6v18.7Z" class="g0_2"/>
<path fill-rule="evenodd" d="M86.6,161.4H774.4V142.8H86.6v18.6Z" class="g0_2"/>
<path fill-rule="evenodd" d="M86.6,198.8H345.7V180.3H86.6v18.5Z" class="g0_2"/>
<path fill-rule="evenodd" d="M86.6,236.3h714V217.7H86.6v18.6Z" class="g0_2"/>
<path fill-rule="evenodd" d="M86.6,255.1H211.5V236.3H86.6v18.8Z" class="g0_2"/>
<path fill-rule="evenodd" d="M86.6,292.5H813V273.8H86.6v18.7Z" class="g0_2"/>
<path fill-rule="evenodd" d="M86.6,311.1h727V292.6H86.6v18.5Z" class="g0_2"/>
<path fill-rule="evenodd" d="M86.6,329.9H818.2V311.2H86.6v18.7Z" class="g0_2"/>
<path fill-rule="evenodd" d="M86.6,348.6h724V330H86.6v18.6Z" class="g0_2"/>
<path fill-rule="evenodd" d="M86.6,367.4h49.8V348.6H86.6v18.8Z" class="g0_2"/>
<path fill-rule="evenodd" d="M86.6,404.8H816.5V386.1H86.6v18.7Z" class="g0_2"/>
<path fill-rule="evenodd" d="M86.6,423.4H613.2V404.9H86.6v18.5Z" class="g0_2"/>
<path fill-rule="evenodd" d="M86.6,460.9H810.4V442.3H86.6v18.6Z" class="g0_2"/>
<path fill-rule="evenodd" d="M86.6,479.6h403V460.9H86.6v18.7Z" class="g0_2"/>
<path fill-rule="evenodd" d="M86.6,517.1H814.2V498.4H86.6v18.7Z" class="g0_2"/>
<path fill-rule="evenodd" d="M86.6,535.7h87.2V517.2H86.6v18.5Z" class="g0_2"/>
<path fill-rule="evenodd" d="M86.6,573.1h714V554.6H86.6v18.5Z" class="g0_2"/>
<path fill-rule="evenodd" d="M86.6,591.9H788.3V573.2H86.6v18.7Z" class="g0_2"/>
<path fill-rule="evenodd" d="M86.6,610.6H388.4V592H86.6v18.6Z" class="g0_2"/>
<path fill-rule="evenodd" d="M86.6,648H337.7V629.4H86.6V648Z" class="g0_2"/>
<path fill-rule="evenodd" d="M86.6,685.4H788.4V666.9H86.6v18.5Z" class="g0_2"/>
<path fill-rule="evenodd" d="M86.6,704.2H810.4V685.5H86.6v18.7Z" class="g0_2"/>
<path fill-rule="evenodd" d="M86.6,722.9h89.6V704.3H86.6v18.6Z" class="g0_2"/>
<path fill-rule="evenodd" d="M86.6,760.3H765.2V741.7H86.6v18.6Z" class="g0_2"/>
<path fill-rule="evenodd" d="M86.6,797.7H818.2V779.2H86.6v18.5Z" class="g0_2"/>
<path fill-rule="evenodd" d="M86.6,816.5H793V797.8H86.6v18.7Z" class="g0_2"/>
<path fill-rule="evenodd" d="M86.6,835.2H450.5V816.6H86.6v18.6Z" class="g0_2"/>
<path fill-rule="evenodd" d="M86.6,872.6H810V854H86.6v18.6Z" class="g0_2"/>
<path fill-rule="evenodd" d="M86.6,891.4H768.1V872.7H86.6v18.7Z" class="g0_2"/>
<path fill-rule="evenodd" d="M86.6,910H791.8V891.5H86.6V910Z" class="g0_2"/>
<path fill-rule="evenodd" d="M86.6,928.8h483V910.1H86.6v18.7Z" class="g0_2"/>
<path fill-rule="evenodd" d="M86.6,966.2H802.5V947.5H86.6v18.7Z" class="g0_2"/>
<path fill-rule="evenodd" d="M86.6,984.9H231.7V966.3H86.6v18.6Z" class="g0_2"/>
<path fill-rule="evenodd" d="M86.6,1022.3h718v-18.5H86.6v18.5Z" class="g0_2"/>
<path fill-rule="evenodd" d="M86.6,1041.1H819.1v-18.7H86.6v18.7Z" class="g0_2"/>
<path fill-rule="evenodd" d="M86.6,1059.7H794.4v-18.5H86.6v18.5Z" class="g0_2"/>
<path fill-rule="evenodd" d="M86.6,1078.5h40.7v-18.7H86.6v18.7Z" class="g0_2"/>
<path fill-rule="evenodd" d="M86.6,1116h663v-18.7H86.6V1116Z" class="g0_2"/>
<path fill-rule="evenodd" d="M86.6,1134.6H745.2V1116H86.6v18.6Z" class="g0_2"/>
<path fill-rule="evenodd" d="M86.6,1153.4H206.5v-18.7H86.6v18.7Z" class="g0_2"/>
<path fill-rule="evenodd" d="M86.6,1190.8H451.7v-18.7H86.6v18.7Z" class="g0_2"/>
</svg>