<?xml version="1.0" encoding="UTF-8" standalone="no"?>
<!DOCTYPE svg PUBLIC "-//W3C//DTD SVG 1.1//EN"
"http://www.w3.org/Graphics/SVG/1.1/DTD/svg11.dtd">
<svg viewBox="0 0 909 1286" version="1.1" xmlns="http://www.w3.org/2000/svg" xmlns:xlink="http://www.w3.org/1999/xlink">
<defs>
<style type="text/css"><![CDATA[
.g0_3{
fill: #FFF;
}
]]></style>
</defs>
<path fill-rule="evenodd" d="M86.6,124h729V105.4H86.6V124Z" class="g0_3"/>
<path fill-rule="evenodd" d="M86.6,142.8h712V124.1H86.6v18.7Z" class="g0_3"/>
<path fill-rule="evenodd" d="M86.6,161.4h98.3V142.8H86.6v18.6Z" class="g0_3"/>
<path fill-rule="evenodd" d="M86.6,180.2H799.7V161.5H86.6v18.7Z" class="g0_3"/>
<path fill-rule="evenodd" d="M86.6,198.8H799.4V180.3H86.6v18.5Z" class="g0_3"/>
<path fill-rule="evenodd" d="M86.6,217.6H335.3V198.9H86.6v18.7Z" class="g0_3"/>
<path fill-rule="evenodd" d="M86.6,236.3H781.4V217.7H86.6v18.6Z" class="g0_3"/>
<path fill-rule="evenodd" d="M86.6,255.1H581.4V236.3H86.6v18.8Z" class="g0_3"/>
<path fill-rule="evenodd" d="M86.6,273.7H768.9V255.1H86.6v18.6Z" class="g0_3"/>
<path fill-rule="evenodd" d="M86.6,292.5H748.5V273.8H86.6v18.7Z" class="g0_3"/>
<path fill-rule="evenodd" d="M86.6,311.1H640.8V292.6H86.6v18.5Z" class="g0_3"/>
<path fill-rule="evenodd" d="M86.6,329.9H785.2V311.2H86.6v18.7Z" class="g0_3"/>
<path fill-rule="evenodd" d="M86.6,348.6H816.8V330H86.6v18.6Z" class="g0_3"/>
<path fill-rule="evenodd" d="M86.6,367.4H804.1V348.6H86.6v18.8Z" class="g0_3"/>
<path fill-rule="evenodd" d="M86.6,386H383.1V367.4H86.6V386Z" class="g0_3"/>
<path fill-rule="evenodd" d="M86.6,423.4H372.2V404.9H86.6v18.5Z" class="g0_3"/>
<path fill-rule="evenodd" d="M86.6,460.9H810.7V442.3H86.6v18.6Z" class="g0_3"/>
<path fill-rule="evenodd" d="M86.6,479.6H804.8V460.9H86.6v18.7Z" class="g0_3"/>
<path fill-rule="evenodd" d="M86.6,498.3H539.2V479.7H86.6v18.6Z" class="g0_3"/>
<path fill-rule="evenodd" d="M86.6,535.7H801.9V517.2H86.6v18.5Z" class="g0_3"/>
<path fill-rule="evenodd" d="M86.6,554.5H785.4V535.8H86.6v18.7Z" class="g0_3"/>
<path fill-rule="evenodd" d="M86.6,573.1H515.4V554.6H86.6v18.5Z" class="g0_3"/>
<path fill-rule="evenodd" d="M86.6,610.6H633.3V592H86.6v18.6Z" class="g0_3"/>
<path fill-rule="evenodd" d="M86.6,648H786.7V629.4H86.6V648Z" class="g0_3"/>
<path fill-rule="evenodd" d="M86.6,666.8H771.3V648.1H86.6v18.7Z" class="g0_3"/>
<path fill-rule="evenodd" d="M86.6,685.4H465.9V666.9H86.6v18.5Z" class="g0_3"/>
<path fill-rule="evenodd" d="M86.6,722.9H809.8V704.3H86.6v18.6Z" class="g0_3"/>
<path fill-rule="evenodd" d="M86.6,741.7H248.3V722.9H86.6v18.8Z" class="g0_3"/>
<path fill-rule="evenodd" d="M86.6,779.1H797.4V760.4H86.6v18.7Z" class="g0_3"/>
<path fill-rule="evenodd" d="M86.6,797.7H747.5V779.2H86.6v18.5Z" class="g0_3"/>
<path fill-rule="evenodd" d="M86.6,816.5H691.7V797.8H86.6v18.7Z" class="g0_3"/>
<path fill-rule="evenodd" d="M86.6,835.2H801.5V816.6H86.6v18.6Z" class="g0_3"/>
<path fill-rule="evenodd" d="M86.6,854H797.4V835.2H86.6V854Z" class="g0_3"/>
<path fill-rule="evenodd" d="M86.6,872.6H758V854H86.6v18.6Z" class="g0_3"/>
<path fill-rule="evenodd" d="M86.6,891.4H541.8V872.7H86.6v18.7Z" class="g0_3"/>
<path fill-rule="evenodd" d="M86.6,928.8H790.7V910.1H86.6v18.7Z" class="g0_3"/>
<path fill-rule="evenodd" d="M86.6,947.5h723V928.9H86.6v18.6Z" class="g0_3"/>
<path fill-rule="evenodd" d="M86.6,966.2h723V947.5H86.6v18.7Z" class="g0_3"/>
<path fill-rule="evenodd" d="M86.6,984.9H775.3V966.3H86.6v18.6Z" class="g0_3"/>
<path fill-rule="evenodd" d="M86.6,1003.7H747.2V985H86.6v18.7Z" class="g0_3"/>
<path fill-rule="evenodd" d="M86.6,1041.1H804.3v-18.7H86.6v18.7Z" class="g0_3"/>
<path fill-rule="evenodd" d="M86.6,1059.7H779.4v-18.5H86.6v18.5Z" class="g0_3"/>
<path fill-rule="evenodd" d="M86.6,1078.5H763.8v-18.7H86.6v18.7Z" class="g0_3"/>
<path fill-rule="evenodd" d="M86.6,1097.2h218v-18.6H86.6v18.6Z" class="g0_3"/>
<path fill-rule="evenodd" d="M86.6,1134.6H806V1116H86.6v18.6Z" class="g0_3"/>
<path fill-rule="evenodd" d="M86.6,1153.4H802v-18.7H86.6v18.7Z" class="g0_3"/>
<path fill-rule="evenodd" d="M86.6,1172H426.3v-18.5H86.6V1172Z" class="g0_3"/>
</svg>