<?xml version="1.0" encoding="UTF-8" standalone="no"?>
<!DOCTYPE svg PUBLIC "-//W3C//DTD SVG 1.1//EN"
"http://www.w3.org/Graphics/SVG/1.1/DTD/svg11.dtd">
<svg viewBox="0 0 909 1286" version="1.1" xmlns="http://www.w3.org/2000/svg" xmlns:xlink="http://www.w3.org/1999/xlink">
<defs>
<style type="text/css"><![CDATA[
.g0_5{
fill: #FFF;
}
]]></style>
</defs>
<path fill-rule="evenodd" d="M86.6,105.3h89.3V86.6H86.6v18.7Z" class="g0_5"/>
<path fill-rule="evenodd" d="M86.6,124H762.3V105.4H86.6V124Z" class="g0_5"/>
<path fill-rule="evenodd" d="M86.6,142.8H334.8V124.1H86.6v18.7Z" class="g0_5"/>
<path fill-rule="evenodd" d="M86.6,161.4H807.8V142.8H86.6v18.6Z" class="g0_5"/>
<path fill-rule="evenodd" d="M86.6,180.2H514V161.5H86.6v18.7Z" class="g0_5"/>
<path fill-rule="evenodd" d="M86.6,198.8h711V180.3H86.6v18.5Z" class="g0_5"/>
<path fill-rule="evenodd" d="M86.6,217.6h71.1V198.9H86.6v18.7Z" class="g0_5"/>
<path fill-rule="evenodd" d="M86.6,236.3H783.1V217.7H86.6v18.6Z" class="g0_5"/>
<path fill-rule="evenodd" d="M86.6,255.1H506.7V236.3H86.6v18.8Z" class="g0_5"/>
<path fill-rule="evenodd" d="M86.6,292.5H816.5V273.8H86.6v18.7Z" class="g0_5"/>
<path fill-rule="evenodd" d="M86.6,311.1H765.3V292.6H86.6v18.5Z" class="g0_5"/>
<path fill-rule="evenodd" d="M86.6,329.9H814.5V311.2H86.6v18.7Z" class="g0_5"/>
<path fill-rule="evenodd" d="M86.6,348.6H725.9V330H86.6v18.6Z" class="g0_5"/>
<path fill-rule="evenodd" d="M86.6,367.4H782.8V348.6H86.6v18.8Z" class="g0_5"/>
<path fill-rule="evenodd" d="M86.6,386H792.2V367.4H86.6V386Z" class="g0_5"/>
<path fill-rule="evenodd" d="M86.6,404.8H605.2V386.1H86.6v18.7Z" class="g0_5"/>
<path fill-rule="evenodd" d="M86.6,442.2H783.4V423.5H86.6v18.7Z" class="g0_5"/>
<path fill-rule="evenodd" d="M86.6,460.9H264.7V442.3H86.6v18.6Z" class="g0_5"/>
<path fill-rule="evenodd" d="M86.6,498.3H411.2V479.7H86.6v18.6Z" class="g0_5"/>
<path fill-rule="evenodd" d="M86.6,517.1H746.1V498.4H86.6v18.7Z" class="g0_5"/>
<path fill-rule="evenodd" d="M86.6,535.7H770.8V517.2H86.6v18.5Z" class="g0_5"/>
<path fill-rule="evenodd" d="M86.6,554.5H730.2V535.8H86.6v18.7Z" class="g0_5"/>
<path fill-rule="evenodd" d="M86.6,573.1H207.1V554.6H86.6v18.5Z" class="g0_5"/>
<path fill-rule="evenodd" d="M86.6,591.9H780.2V573.2H86.6v18.7Z" class="g0_5"/>
<path fill-rule="evenodd" d="M86.6,610.6H787.2V592H86.6v18.6Z" class="g0_5"/>
<path fill-rule="evenodd" d="M86.6,629.4H664.8V610.7H86.6v18.7Z" class="g0_5"/>
<path fill-rule="evenodd" d="M86.6,666.8H797.4V648.1H86.6v18.7Z" class="g0_5"/>
<path fill-rule="evenodd" d="M86.6,685.4H499.8V666.9H86.6v18.5Z" class="g0_5"/>
<path fill-rule="evenodd" d="M86.6,722.9H816.2V704.3H86.6v18.6Z" class="g0_5"/>
<path fill-rule="evenodd" d="M86.6,741.7H799.4V722.9H86.6v18.8Z" class="g0_5"/>
<path fill-rule="evenodd" d="M86.6,760.3H806.1V741.7H86.6v18.6Z" class="g0_5"/>
<path fill-rule="evenodd" d="M86.6,779.1H206.5V760.4H86.6v18.7Z" class="g0_5"/>
<path fill-rule="evenodd" d="M86.6,816.5H802.8V797.8H86.6v18.7Z" class="g0_5"/>
<path fill-rule="evenodd" d="M86.6,835.2H792.5V816.6H86.6v18.6Z" class="g0_5"/>
<path fill-rule="evenodd" d="M86.6,854H816.2V835.2H86.6V854Z" class="g0_5"/>
<path fill-rule="evenodd" d="M86.6,872.6H226.8V854H86.6v18.6Z" class="g0_5"/>
<path fill-rule="evenodd" d="M86.6,910H801.9V891.5H86.6V910Z" class="g0_5"/>
<path fill-rule="evenodd" d="M86.6,928.8H753V910.1H86.6v18.7Z" class="g0_5"/>
<path fill-rule="evenodd" d="M86.6,947.5H196.1V928.9H86.6v18.6Z" class="g0_5"/>
<path fill-rule="evenodd" d="M86.6,984.9H822.5V966.3H86.6v18.6Z" class="g0_5"/>
<path fill-rule="evenodd" d="M86.6,1003.7H282.4V985H86.6v18.7Z" class="g0_5"/>
<path fill-rule="evenodd" d="M86.6,1041.1H810.7v-18.7H86.6v18.7Z" class="g0_5"/>
<path fill-rule="evenodd" d="M86.6,1059.7H802.8v-18.5H86.6v18.5Z" class="g0_5"/>
<path fill-rule="evenodd" d="M86.6,1078.5H798.2v-18.7H86.6v18.7Z" class="g0_5"/>
<path fill-rule="evenodd" d="M86.6,1097.2H772.1v-18.6H86.6v18.6Z" class="g0_5"/>
<path fill-rule="evenodd" d="M86.6,1116H392.1v-18.7H86.6V1116Z" class="g0_5"/>
<path fill-rule="evenodd" d="M86.6,1153.4H817.3v-18.7H86.6v18.7Z" class="g0_5"/>
<path fill-rule="evenodd" d="M86.6,1172H789.8v-18.5H86.6V1172Z" class="g0_5"/>
<path fill-rule="evenodd" d="M86.6,1190.8H701.9v-18.7H86.6v18.7Z" class="g0_5"/>
</svg>